<?xml version="1.0" standalone="no"?><!DOCTYPE svg PUBLIC "-//W3C//DTD SVG 1.1//EN" "http://www.w3.org/Graphics/SVG/1.1/DTD/svg11.dtd"><svg t="1624239439443" class="icon" viewBox="0 0 1024 1024" version="1.1" xmlns="http://www.w3.org/2000/svg" p-id="3759" xmlns:xlink="http://www.w3.org/1999/xlink" width="400" height="400"><defs><style type="text/css"></style></defs><path d="M184.926155 309.77493c-17.208367 0-31.273786 13.955951-31.273787 31.166751 0 17.198636 13.946221 31.154588 31.273787 31.154588h268.420359c17.19742 0 31.273786-13.955951 31.273786-31.154588 0-17.2108-13.955951-31.166751-31.273786-31.166751H184.926155z m233.315193 231.8094c0-17.207151-13.957168-31.273786-31.273787-31.273786H184.926155c-17.208367 0-31.273786 13.957168-31.273787 31.273786 0 17.205934 13.946221 31.152155 31.273787 31.152156h202.161821c17.196204 0 31.153372-13.945005 31.153372-31.152156z m-33.309891 191.854803c0-17.208367-13.946221-31.264056-31.27257-31.264055H184.926155c-17.208367 0-31.273786 13.946221-31.273787 31.264055 0 17.205934 13.946221 31.150939 31.273787 31.150939h168.853147c17.205934 0.001216 31.152155-13.945005 31.152155-31.150939z m620.015707 200.722926c-10.114842-72.773099-33.129877-124.626866-77.31237-173.329171-27.892442-30.927138-58.348867-53.942173-90.898564-69.054836 46.497134-32.078984 77.072758-85.788842 77.072757-146.47181 0-98.00182-79.746209-177.751678-177.749245-177.751678-97.992089 0-177.749245 79.748642-177.749245 177.751678 0 61.730212 31.622868 116.2477 79.517543 148.098017-2.205172 0.928045-4.420074 1.858523-6.62403 2.905767-61.381131 27.782974-109.165121 77.660236-137.984392 144.390702-21.509242 49.637649-25.109523 91.484826-25.229937 93.224151-1.277126 15.352276 10.225526 28.830218 25.579018 30.107344 15.343762 1.286857 28.830218-10.116058 29.988146-25.462253 0-0.349081 3.262146-35.800896 21.508026-77.300208 23.602513-53.593092 60.333887-91.947024 109.044707-114.03523 87.537897-39.531321 165.648168-22.445802 232.146318 51.148307 26.626262 29.406749 52.783029 67.18415 63.35642 143.569692 1.975289 13.946221 13.836753 24.061063 27.553091 24.061062 1.277126 0 2.554253-0.120415 3.830163-0.23718 15.342546-2.328019 26.046082-16.391006 23.951594-31.614354zM736.059742 423.239711c67.306997 0 122.062882 54.759534 122.062882 121.943684 0 67.30943-54.757101 122.066531-122.062882 122.066531s-122.062882-54.758318-122.062882-122.066531c0.117982-67.18415 54.8763-121.943684 122.062882-121.943684zM327.679702 918.700315l-167.981052 0.458549c-43.245935 0-78.471515-36.274041-78.471515-80.783722V185.506876c0-44.519412 35.224364-80.783722 78.471515-80.783722h639.367214c43.245935 0 78.470299 36.26431 78.470299 80.783722l-0.228666 101.722515c0 17.320267 13.946221 31.273786 31.264055 31.273786 17.207151 0 31.164318-13.953519 31.164319-31.273786h0.228666v-101.722515c0-78.928848-63.236005-143.212097-140.898673-143.212096H159.69865c-77.654154 0-140.897457 64.16405-140.897457 143.212096v652.977734c0 78.938579 63.244519 143.223043 140.897457 143.223043l167.981052-0.471929c17.207151 0 31.154588-13.946221 31.154588-31.152155 0.001216-17.437033-13.947437-31.383254-31.154588-31.383254z m0 0" fill="#8a8a8a" p-id="3760"></path></svg>